<?xml version="1.0" encoding="UTF-8"?>
<svg width="640px" height="480px" viewBox="0 0 640 480" version="1.1" xmlns="http://www.w3.org/2000/svg" xmlns:xlink="http://www.w3.org/1999/xlink">
    <!-- Generator: Sketch 43.2 (39069) - http://www.bohemiancoding.com/sketch -->
    <title>Level</title>
    <desc>Created with Sketch.</desc>
    <defs></defs>
    <g id="Page-1" stroke="none" stroke-width="1" fill="none" fill-rule="evenodd">
        <g id="Level" stroke="#979797">
            <rect id="Rectangle" x="0" y="364" width="100" height="20"></rect>
            <rect id="Rectangle" x="540" y="364" width="100" height="20"></rect>
            <rect id="Rectangle" x="128" y="289" width="384" height="20"></rect>
            <rect id="Rectangle-2" x="0" y="456" width="640" height="50"></rect>
            <polygon id="Triangle" transform="translate(320.000000, 181.500000) scale(-1, 1) translate(-320.000000, -181.500000) " points="320 124 370 239 270 239"></polygon>
            <polygon id="Triangle-2" points="270 239 320 239 320 289 205 289"></polygon>
            <polygon id="Triangle-2" transform="translate(377.500000, 264.000000) scale(-1, 1) translate(-377.500000, -264.000000) " points="385 239 435 239 435 289 320 289"></polygon>
            <rect id="Rectangle-3" x="120" y="182" width="80" height="20"></rect>
            <rect id="Rectangle-3" x="440" y="182" width="80" height="20"></rect>
        </g>
    </g>
</svg>